<?xml version="1.0" encoding="UTF-8" standalone="no"?>
<svg
   xmlns:dc="http://purl.org/dc/elements/1.1/"
   xmlns:cc="http://creativecommons.org/ns#"
   xmlns:rdf="http://www.w3.org/1999/02/22-rdf-syntax-ns#"
   xmlns:svg="http://www.w3.org/2000/svg"
   xmlns="http://www.w3.org/2000/svg"
   xmlns:xlink="http://www.w3.org/1999/xlink"
   xmlns:sodipodi="http://sodipodi.sourceforge.net/DTD/sodipodi-0.dtd"
   xmlns:inkscape="http://www.inkscape.org/namespaces/inkscape"
   inkscape:version="1.0 (4035a4fb49, 2020-05-01)"
   sodipodi:docname="register.svg"
   version="1.1"
   viewBox="0 0 999 797.25"
   height="797.25"
   width="999"
   data-name="Layer 1"
   id="26e08365-e7f3-4f87-b2fd-e29738693ebb">
  <metadata
     id="metadata244">
    <rdf:RDF>
      <cc:Work
         rdf:about="">
        <dc:format>image/svg+xml</dc:format>
        <dc:type
           rdf:resource="http://purl.org/dc/dcmitype/StillImage" />
      </cc:Work>
    </rdf:RDF>
  </metadata>
  <sodipodi:namedview
     inkscape:current-layer="26e08365-e7f3-4f87-b2fd-e29738693ebb"
     inkscape:window-maximized="1"
     inkscape:window-y="-8"
     inkscape:window-x="-8"
     inkscape:cy="375.7392"
     inkscape:cx="653.14557"
     inkscape:zoom="0.54406114"
     showgrid="false"
     id="namedview242"
     inkscape:window-height="1057"
     inkscape:window-width="1920"
     inkscape:pageshadow="2"
     inkscape:pageopacity="0"
     guidetolerance="10"
     gridtolerance="10"
     objecttolerance="10"
     borderopacity="1"
     bordercolor="#666666"
     pagecolor="#ffffff" />
  <defs
     id="defs9">
    <linearGradient
       id="c24143ca-a0c1-48a5-a3b5-0343775bf348-5-7-1-1"
       x1="778.67"
       y1="845.35"
       x2="778.67"
       y2="329.26"
       gradientUnits="userSpaceOnUse">
      <stop
         offset="0"
         stop-color="gray"
         stop-opacity="0.25"
         id="stop1191" />
      <stop
         offset="0.54"
         stop-color="gray"
         stop-opacity="0.12"
         id="stop1193" />
      <stop
         offset="1"
         stop-color="gray"
         stop-opacity="0.1"
         id="stop1195" />
    </linearGradient>
    <linearGradient
       id="linearGradient1109"
       inkscape:collect="always">
      <stop
         id="stop1105"
         offset="0"
         style="stop-color:#f6af14;stop-opacity:1;" />
      <stop
         id="stop1107"
         offset="1"
         style="stop-color:#e98047;stop-opacity:1" />
    </linearGradient>
    <linearGradient
       id="c24143ca-a0c1-48a5-a3b5-0343775bf348-5-7-1"
       x1="778.67"
       y1="845.35"
       x2="778.67"
       y2="329.26"
       gradientUnits="userSpaceOnUse">
      <stop
         offset="0"
         stop-color="gray"
         stop-opacity="0.25"
         id="stop1098" />
      <stop
         offset="0.54"
         stop-color="gray"
         stop-opacity="0.12"
         id="stop1100" />
      <stop
         offset="1"
         stop-color="gray"
         stop-opacity="0.1"
         id="stop1102" />
    </linearGradient>
    <linearGradient
       id="c24143ca-a0c1-48a5-a3b5-0343775bf348-5-7"
       x1="778.67"
       y1="845.35"
       x2="778.67"
       y2="329.26"
       gradientUnits="userSpaceOnUse">
      <stop
         offset="0"
         stop-color="gray"
         stop-opacity="0.25"
         id="stop1091" />
      <stop
         offset="0.54"
         stop-color="gray"
         stop-opacity="0.12"
         id="stop1093" />
      <stop
         offset="1"
         stop-color="gray"
         stop-opacity="0.1"
         id="stop1095" />
    </linearGradient>
    <linearGradient
       id="c24143ca-a0c1-48a5-a3b5-0343775bf348-5"
       x1="778.67"
       y1="845.35"
       x2="778.67"
       y2="329.26"
       gradientUnits="userSpaceOnUse">
      <stop
         offset="0"
         stop-color="gray"
         stop-opacity="0.25"
         id="stop1084" />
      <stop
         offset="0.54"
         stop-color="gray"
         stop-opacity="0.12"
         id="stop1086" />
      <stop
         offset="1"
         stop-color="gray"
         stop-opacity="0.1"
         id="stop1088" />
    </linearGradient>
    <linearGradient
       id="c24143ca-a0c1-48a5-a3b5-0343775bf348"
       x1="778.67"
       y1="845.35"
       x2="778.67"
       y2="329.26"
       gradientUnits="userSpaceOnUse">
      <stop
         offset="0"
         stop-color="gray"
         stop-opacity="0.25"
         id="stop1077" />
      <stop
         offset="0.54"
         stop-color="gray"
         stop-opacity="0.12"
         id="stop1079" />
      <stop
         offset="1"
         stop-color="gray"
         stop-opacity="0.1"
         id="stop1081" />
    </linearGradient>
    <linearGradient
       gradientUnits="userSpaceOnUse"
       y2="329.26"
       x2="778.67"
       y1="845.35"
       x1="778.67"
       id="c24143ca-a0c1-48a5-a3b5-0343775bf348-5-7-1-1-5">
      <stop
         id="stop2"
         stop-opacity="0.25"
         stop-color="gray"
         offset="0" />
      <stop
         id="stop4"
         stop-opacity="0.12"
         stop-color="gray"
         offset="0.54" />
      <stop
         id="stop6"
         stop-opacity="0.1"
         stop-color="gray"
         offset="1" />
    </linearGradient>
    <linearGradient
       gradientUnits="userSpaceOnUse"
       y2="560.51227"
       x2="865.32485"
       y1="560.51227"
       x1="686.41102"
       id="linearGradient1111"
       xlink:href="#linearGradient1109"
       inkscape:collect="always" />
    <linearGradient
       gradientUnits="userSpaceOnUse"
       y2="459.48947"
       x2="295.07407"
       y1="459.48947"
       x1="257.76001"
       id="linearGradient1119"
       xlink:href="#linearGradient1109"
       inkscape:collect="always" />
    <linearGradient
       gradientUnits="userSpaceOnUse"
       y2="430.46652"
       x2="281"
       y1="430.46652"
       x1="255.33015"
       id="linearGradient1127"
       xlink:href="#linearGradient1109"
       inkscape:collect="always" />
    <linearGradient
       gradientUnits="userSpaceOnUse"
       y2="434.51868"
       x2="312.43036"
       y1="434.51868"
       x1="281.24783"
       id="linearGradient1135"
       xlink:href="#linearGradient1109"
       inkscape:collect="always" />
    <linearGradient
       gradientUnits="userSpaceOnUse"
       y2="416.09811"
       x2="320.38855"
       y1="416.09811"
       x1="306.34"
       id="linearGradient1137"
       xlink:href="#linearGradient1109"
       inkscape:collect="always" />
    <linearGradient
       gradientUnits="userSpaceOnUse"
       y2="411.33426"
       x2="303.01715"
       y1="411.33426"
       x1="295.10507"
       id="linearGradient1139"
       xlink:href="#linearGradient1109"
       inkscape:collect="always" />
    <linearGradient
       gradientUnits="userSpaceOnUse"
       y2="409.57324"
       x2="270.78925"
       y1="409.57324"
       x1="264.3009"
       id="linearGradient1141"
       xlink:href="#linearGradient1109"
       inkscape:collect="always" />
    <linearGradient
       gradientUnits="userSpaceOnUse"
       y2="416.36685"
       x2="261.72"
       y1="416.36685"
       x1="247.61159"
       id="linearGradient1143"
       xlink:href="#linearGradient1109"
       inkscape:collect="always" />
    <linearGradient
       gradientUnits="userSpaceOnUse"
       y2="441.00845"
       x2="318.94702"
       y1="441.00845"
       x1="246.14159"
       id="linearGradient1151"
       xlink:href="#linearGradient1109"
       inkscape:collect="always" />
    <linearGradient
       gradientUnits="userSpaceOnUse"
       y2="655.08502"
       x2="394.31522"
       y1="655.08502"
       x1="358.68338"
       id="linearGradient1159"
       xlink:href="#linearGradient1109"
       inkscape:collect="always" />
    <linearGradient
       gradientUnits="userSpaceOnUse"
       y2="655.08502"
       x2="428.40662"
       y1="655.08502"
       x1="392.76871"
       id="linearGradient1161"
       xlink:href="#linearGradient1109"
       inkscape:collect="always" />
    <linearGradient
       gradientUnits="userSpaceOnUse"
       y2="802.71655"
       x2="746.49658"
       y1="802.71655"
       x1="706.20001"
       id="linearGradient1179"
       xlink:href="#linearGradient1109"
       inkscape:collect="always" />
    <linearGradient
       gradientUnits="userSpaceOnUse"
       y2="788.63446"
       x2="820.42999"
       y1="788.63446"
       x1="745.90295"
       id="linearGradient1181"
       xlink:href="#linearGradient1109"
       inkscape:collect="always" />
    <linearGradient
       gradientUnits="userSpaceOnUse"
       y2="386.37"
       x2="701.21002"
       y1="386.37"
       x1="595.21002"
       id="linearGradient1204"
       xlink:href="#linearGradient1109"
       inkscape:collect="always" />
  </defs>
  <title
     id="title11">press play</title>
  <path
     style="fill:#f6af14;fill-opacity:1"
     id="path13"
     opacity="0.1"
     fill="#2271ff"
     transform="translate(-100.5 -51.37)"
     d="M421.71,82.64c30.78-27.43,79.11-33,123.09-30.84,138.16,6.87,262.87,73.56,370.74,149,39.05,27.31,77.5,56.74,102.85,94.35,51.6,76.57,36.3,182.63-35.46,245.7-24.41,21.46-54,37.91-84.39,52.5-54,25.93-112.31,46.74-173.62,52.67-43.73,4.22-88,.79-131.46-5.11C472,624.45,352.81,588,252.9,525.72c-43.82-27.33-85.13-61.3-103.19-105.52S143.21,320,188,293.8c18.51-10.82,40.64-15.71,62.3-20.3,31.89-6.76,64.29-13.42,93.06-27.15,29.72-14.19,64.92-41.63,59-73C396,139.63,391,110,421.71,82.64Z" />
  <circle
     style="fill:#f6af14;fill-opacity:1"
     id="circle15"
     opacity="0.1"
     fill="#2271ff"
     r="31.5"
     cy="129.4"
     cx="174.08" />
  <circle
     style="fill:#f6af14;fill-opacity:1"
     id="circle17"
     opacity="0.1"
     fill="#2271ff"
     r="19.5"
     cy="54.4"
     cx="108.09" />
  <circle
     style="fill:#f6af14;fill-opacity:1"
     id="circle19"
     opacity="0.1"
     fill="#2271ff"
     r="12"
     cy="114.4"
     cx="925.57" />
  <ellipse
     id="ellipse21"
     opacity="0.1"
     fill="#2271ff"
     ry="8.4"
     rx="84.24"
     cy="788.85"
     cx="689.92" />
  <polygon
     style="fill:#606060;fill-opacity:1"
     id="polygon23"
     fill="#5f5d7e"
     points="214 487.31 213.63 507.26 210.67 668.97 185.33 728.31 98 729.31 98 496.5 189.14 489.28 214 487.31" />
  <polygon
     style="fill:#000000;fill-opacity:1"
     id="polygon25"
     opacity="0.1"
     points="185.33,728.31 98,729.31 98,496.5 189.14,489.28 214,487.31 213.63,507.26 210.67,668.97 " />
  <polygon
     style="fill:#606060;fill-opacity:1"
     id="polygon27"
     fill="#5f5d7e"
     points="214 487.31 213.63 507.26 210.67 668.97 185.33 728.31 192 507.64 191.98 507.5 189.14 489.28 214 487.31" />
  <polygon
     id="polygon29"
     opacity="0.1"
     points="189.14 489.28 214 487.31 213.63 507.26 191.98 507.5 98 508.55 98 496.5 189.14 489.28" />
  <polygon
     style="fill:#606060;fill-opacity:1"
     id="polygon31"
     fill="#5f5d7e"
     points="999 496.5 999 727.97 978.67 727.97 897.33 668.64 897.33 489.97 970 483.14 974.46 485.19 978.67 487.13 999 496.5" />
  <rect
     id="rect33"
     opacity="0.1"
     height="242.78"
     width="20.33"
     y="485.19"
     x="978.67" />
  <polygon
     id="polygon35"
     opacity="0.1"
     points="999 485.19 999 498.5 978.67 498.73 897.33 499.63 897.33 489.97 970 483.14 974.46 485.19 978.67 487.13 978.67 485.19 999 485.19" />
  <polygon
     style="fill:#606060;fill-opacity:1"
     id="polygon37"
     fill="#5f5d7e"
     points="999 477.64 999 496.5 0 507.64 0 483.64 94 464.64 912 458.64 999 477.64" />
  <polygon
     id="polygon39"
     opacity="0.1"
     points="999 477.64 999 496.5 0 507.64 0 483.64 999 477.64" />
  <rect
     style="fill:#414141;fill-opacity:1"
     id="rect41"
     fill="#474157"
     ry="22.82"
     rx="22.82"
     height="271.69"
     width="349.92"
     y="194.97"
     x="365.5" />
  <rect
     style="fill:#ededed;fill-opacity:1"
     id="rect43"
     fill="#ededf4"
     height="221.63"
     width="294.12"
     y="219.48"
     x="393.66" />
  <circle
     id="circle45"
     fill="#e6e8ec"
     r="4.82"
     cy="330.29"
     cx="382.18" />
  <circle
     id="circle47"
     fill="#e6e8ec"
     r="7.95"
     cy="330.81"
     cx="700.81" />
  <path
     style="fill-opacity:1.0;fill:url(#linearGradient1204)"
     id="path49"
     fill="#2271ff"
     transform="translate(-100.5 -51.37)"
     d="M672.93,382.52l-37.61-22.86a5.14,5.14,0,0,0-7.63,4.48V408.6a5.14,5.14,0,0,0,7.63,4.48l37.61-21.58A5.15,5.15,0,0,0,672.93,382.52Zm28.28,3.85a53,53,0,1,0-53,53A53,53,0,0,0,701.21,386.37Zm-95.74,0a42.74,42.74,0,1,1,42.74,42.74A42.73,42.73,0,0,1,605.47,386.37Z" />
  <path
     style="fill:url(#c24143ca-a0c1-48a5-a3b5-0343775bf348-5-7-1-1-5)"
     id="path51"
     fill="url(#c24143ca-a0c1-48a5-a3b5-0343775bf348)"
     transform="translate(-100.5 -51.37)"
     d="M904.38,560.51a12.5,12.5,0,0,0-1.13-3.52c.76-2.59,1.25-4.18,1.25-4.18s0-.38-.12-1a15.35,15.35,0,0,0-15.55-12.88c-6,.11-17.38.51-30,1.93.72-5.05,1.58-11.09,2.48-17.31l1.65.18c.38,0,.78,0,1.18.06h.53a5.44,5.44,0,0,0,3.66-1.12,2.16,2.16,0,0,0-.67-3.54,8.92,8.92,0,0,0,7.83-3.28,7,7,0,0,0,0-8.14c-2.11-3-6.58-5-6.82-8.53-.13-2,1.21-3.8,2.26-5.57a23.27,23.27,0,0,0-3.67-27.95,54.76,54.76,0,0,0-4.44-3.95c-2.2-8.08-4.5-15.3-5.18-15.53-.88-.29-2.39-2.19-3.83-3.82a18.4,18.4,0,0,0-.07-4.13c-1.06-7-8-12-11.82-18.18s-4.51-13.75-3.53-20.83,3.45-13.93,5.46-20.84c1.5-5.13,2.75-10.58,1.07-15.67-1.19-3.63-3.78-6.77-6.45-9.72-6.41-7.09-13.8-13.73-22.92-18a45.55,45.55,0,0,0-20.29-4.34h-.07l-1.1.06-.78.05-.78.08-.83.08h0c-.85.11-1.69.24-2.53.41a87.31,87.31,0,0,0-18.55-2.08h-.81a9.5,9.5,0,0,0-5.3,1.25c-2.22,1.55-2.5,4.33-3.17,6.75a18.73,18.73,0,0,1-7.2,10c-2.39,1.72-5.2,3-7.48,4.8s-4.06,4.5-3.45,7.16c.51,2.23,2.59,3.89,5,4.9-.29.36-.59.71-.87,1.08.47.19,1,.36,1.43.5,3,.89,6.23,1,9.27,1.81a20.31,20.31,0,0,1,2.46.83,35.12,35.12,0,0,0-4.11,16.52,35.59,35.59,0,0,0,18.62,31.22c0,.34,0,.67,0,1,.31,10.44-.48,23.14-5.82,25.29s-10.45,4.58-13.6,6.15l-1,.53c-.83-.38-1.66-.78-2.47-1.2,0,0-4.25-.5-3.51,2.74,0,0-12.85-2-19.9,3.49s-18.62,16.95-20.89,19.94S688,483.54,688,483.54s5.53-7.73,3.14-17.2c0,0-2.64-11.42-1.38-16s4.53-21.58,4.53-21.58.46-17.94-9.33-26.17-16.6-15-12.82-7a111.46,111.46,0,0,0,5.54,10.71s-23.41,5.56-15.1,14.24,10.57,8.69,10.57,8.69-2.77,21.43-3.28,25.42-5,34.39-5,34.39-.25,14.46,2.27,16.7c0,0,1.65,9.31,12.08,9,0,0,19.88-.5,25.42-2.74s24.66-14.21,26.68-13.46a1.15,1.15,0,0,1,.39.26,2.83,2.83,0,0,1,.3.3c-2,4.43-6.74,19.47-4.72,26.86,0,0-1.76,20.93,8.81,27.66,0,0,15.35,25.92,9.56,39.87-.46,1.13-.87,2.17-1.25,3.18-8.79-7.29-22.2-14-42.68-17.71-2.09-.38-4.17-.84-6.23-1.34-5.82-1.41-21.83-2.7-29.45,22.61a111.36,111.36,0,0,1-6.76,17.12c-3,6.07-6.33,14.77-6.4,23.4-.17,12.1,6.08,24.09,28.76,28.49.25,9,1.28,19.72,4.36,27.43,6.29,15.7,16.36,41.12,16.36,41.12s12.08,25.92,12.84,36.38c.49,6.85,1.21,15.83.71,22,0,.38-.06.74-.1,1.1a26.52,26.52,0,0,1-3.38,3.07c-1.76,1-7.55,7.23-7.55,8.72a26.64,26.64,0,0,0,.38,4.26c-2.74,2.39-4.24,5-4.24,7.6,0,13.52,38.37,24.48,85.7,24.48s85.69-11,85.69-24.48c0-12.34-32-22.54-73.58-24.22,8.67-3.46,16.37-7.09,19.56-10a4.68,4.68,0,0,0,1.51-2.06l-8.05-18.69s-.63.14-1.56.41l-.56-.84c-3.58-5.45-10.47-16.31-10.47-19.26,0-1.09-1.82-8.06-4.46-17.61V698c26.26,4,60.1-1.44,60.1-1.44l.15-.08h.66v-.36c4.55-2.52,27.31-15.85,34.06-33.53,2-5.16-.49-12.55-5.44-20.45,3.46-8.59,12-30.78,11.15-39.63,0-.47-.06-1-.06-1.52a26.12,26.12,0,0,0,.1-2.72c1-13,9-36.75,9-36.75S904.48,561.11,904.38,560.51Zm-170-57.76c1.82,3.2,3.77,7.29,4.54,8.95h0S736.26,506.8,734.43,502.75Zm1.9,280.1-.19.07,0-1a59.38,59.38,0,0,1,.19-7.82,9.16,9.16,0,0,0-.86-4.06,96,96,0,0,1-6.13-24.13c-1-8.72-1.83-18.23-1.31-20.65.78-3.71,1.42-31.81.45-45.66l15.48,3.48,18,36.7s11.58,17.92,15.17,32.06V766a34.6,34.6,0,0,1-5.41,11.74c-2.39,3.27-4.72,6.58-6.88,10-.66,1.06-1.39,2.15-2.12,3.17-.24,0-12.07.69-14.08,2.91-1.24,1.37-3.4,3.53-3.76,5.7l-.51.08C742,792.69,736.33,782.85,736.33,782.85Z" />
  <path
     id="path53"
     opacity="0.1"
     transform="translate(-100.5 -51.37)"
     d="M812.43,770l-4,13-17,14.75-25,7.18s-11.75-6.43-7.75-7.68c1.11-.35,2.43-1.62,3.77-3.28-1.4,5.1,9.73-1.47,9.73-1.47s28.75-20.5,31.75-22.75a22.61,22.61,0,0,1,6.4-2.93C811.58,768.77,812.43,770,812.43,770Z" />
  <path
     id="path55"
     fill="#fdc2cc"
     d="m 713.07877,718.63 -4,13 -17,14.75 -25,7.18 c 0,0 -11.75,-6.43 -7.75,-7.68 1.11,-0.35 2.43,-1.62 3.77,-3.28 a 50,50 0 0 0 3.34,-4.82 c 2.14,-3.44 4.46,-6.76 6.83,-10 a 36,36 0 0 0 6.31,-16.61 c 1.75,-13.75 -16,-41.5 -16,-41.5 l -32.25,-66.25 45,5.5 c 0,0 24.25,83.25 24.25,87.25 0,3 6.84,13.85 10.4,19.32 1.25,1.91 2.1,3.14 2.1,3.14 z" />
  <ellipse
     style="fill:#606060;fill-opacity:1"
     id="ellipse57"
     fill="#5f5d7e"
     ry="24.55"
     rx="85.12"
     cy="771.05"
     cx="686.97" />
  <path
     style="fill-opacity:1.0;fill:url(#linearGradient1181)"
     id="path59"
     fill="#2271ff"
     transform="translate(-100.5 -51.37)"
     d="M820.43,786a4.8,4.8,0,0,1-1.5,2.07c-6.18,5.67-29.29,14.1-43.57,18.68A101.11,101.11,0,0,1,763.93,810c-3.5.25-10.75-2-15.75-5.07s-.5-7.43,1.52-9.68,14-2.92,14-2.92c-5.75,9.57,8.49,1.17,8.49,1.17s28.75-20.5,31.75-22.75,8.5-3.5,8.5-3.5Z" />
  <path
     style="fill:#808080;fill-opacity:0.25"
     id="path61"
     opacity="0.3"
     d="m 719.93,734.63 a 4.8,4.8 0 0 1 -1.5,2.07 c -6.18,5.67 -29.29,14.1 -43.57,18.68 a 101.11,101.11 0 0 1 -11.43,3.25 c -3.5,0.25 -10.75,-2 -15.75,-5.07 -5,-3.07 -0.5,-7.43 1.52,-9.68 2.02,-2.25 14,-2.92 14,-2.92 -5.75,9.57 8.49,1.17 8.49,1.17 0,0 28.75,-20.5 31.75,-22.75 3,-2.25 8.5,-3.5 8.5,-3.5 z" />
  <path
     id="path63"
     opacity="0.1"
     transform="translate(-100.5 -51.37)"
     d="M818.93,788.09c-6.18,5.67-29.29,14.1-43.57,18.68C788.3,795.81,810,790.08,818.93,788.09Z" />
  <ellipse
     id="ellipse65"
     opacity="0.1"
     ry="4.91"
     rx="17.03"
     cy="763.14"
     cx="686.97" />
  <rect
     style="fill:#606060;fill-opacity:1"
     id="rect67"
     fill="#5f5d7e"
     height="129.5"
     width="17.5"
     y="633.64"
     x="677.5" />
  <path
     id="path69"
     opacity="0.1"
     transform="translate(-100.5 -51.37)"
     d="M795.5,691.43v15c-3.5-1.08-11.49-5.63-17.5-9.21V685h3.65Z" />
  <path
     style="fill:#414141;fill-opacity:1"
     transform="translate(-100.5 -51.37)"
     id="path71"
     fill="#474157"
     d="M754.27,628.63s57.78-14.87,72.16-26,70.85,41.24,63.39,61-34.62,34.07-34.62,34.07-75.11,12.22-87.9-13.27S754.27,628.63,754.27,628.63Z" />
  <path
     id="path73"
     opacity="0.1"
     d="m 653.77,577.26 c 0,0 57.78,-14.87 72.16,-26 14.38,-11.13 70.85,41.24 63.39,61 -7.46,19.76 -34.62,34.07 -34.62,34.07 0,0 -75.11,12.22 -87.9,-13.27 -12.79,-25.49 -13.03,-55.8 -13.03,-55.8 z" />
  <path
     style="fill:#414141;fill-opacity:1"
     id="path75"
     fill="#474157"
     transform="translate(-100.5 -51.37)"
     d="M749.27,622.63s57.78-14.87,72.16-26,70.85,41.24,63.39,61-34.62,34.07-34.62,34.07-75.11,12.22-87.9-13.27S749.27,622.63,749.27,622.63Z" />
  <path
     id="path77"
     fill="#fdc2cc"
     transform="translate(-100.5 -51.37)"
     d="M695.68,486.27,689.43,484s5.5-7.75,3.13-17.25c0,0-2.63-11.46-1.38-16.1s4.5-21.65,4.5-21.65.46-18-9.27-26.25-16.48-15-12.73-7a111.4,111.4,0,0,0,5.5,10.75s-23.25,5.57-15,14.29,10.5,8.71,10.5,8.71-2.75,21.5-3.25,25.5-5,34.5-5,34.5-.25,14.5,2.25,16.75a11.31,11.31,0,0,0,12,9C682.46,515.22,703.68,491.77,695.68,486.27Z" />
  <path
     id="path79"
     fill="#fdc2cc"
     transform="translate(-100.5 -51.37)"
     d="M846.68,440.27v14L832.18,459l-24.7,18.18L800.93,482l-29.25-11.75-18.5-19.5s.9-.49,2.46-1.3l1-.53c3.13-1.57,8.06-4,13.51-6.17s6.09-14.89,5.78-25.37l0-1c-.25-7.35-1-13.36-1-13.36s3.05-.58,7.49-1.24c12.31-1.83,35.28-4.3,33.26,3.24a17.37,17.37,0,0,0,0,7.79c.06.28.12.57.19.85,2.08,9.09,8.52,18.61,8.52,18.61l20,7.2.56.2Z" />
  <path
     id="path81"
     fill="#fdc2cc"
     transform="translate(-100.5 -51.37)"
     d="M846.68,444.52v-4.25a14,14,0,0,1,4.75,0c1.75.5,5.07,5.75,6.57,6.25s10.68,34.75,9.68,37.75S857.23,555,857.23,555l-19.05,21-3.75-57.75L846.68,484Z" />
  <path
     id="path83"
     fill="#fdc2cc"
     transform="translate(-100.5 -51.37)"
     d="M747.93,601.77s-17.41,3.75-15.2,9.25,11.95,5.75,11.95,5.75Z" />
  <path
     id="path85"
     fill="#fdc2cc"
     transform="translate(-100.5 -51.37)"
     d="M772.18,490.72l-13.25,28.55-15.75,11.5L740.43,513s-5.32-11.75-7.61-13.74a1.15,1.15,0,0,0-.39-.26c-2-.75-21,11.25-26.5,13.5s-25.25,2.75-25.25,2.75L689.43,484s17.5-6.5,19.75-9.5,13.75-14.5,20.75-20S749.7,451,749.7,451l.2.08,3.28,1.42,9.5,23.25Z" />
  <path
     id="path87"
     fill="#fdc2cc"
     transform="translate(-100.5 -51.37)"
     d="M737.43,775.52a59.64,59.64,0,0,0-.19,7.84c.07,2.79.19,5.16.19,5.16l-5.75,12s-19.75,6.5-16.5,3.75c1.13-.95,1.71-3.42,2-6.69.49-6.18-.22-15.19-.71-22.06-.75-10.5-12.75-36.5-12.75-36.5s-10-25.5-16.25-41.25-4-44.25-4-44.25,1-21.5,5.5-28,22-8.75,22-8.75L719.18,644s6.75,25.5,9.25,29.25,1.75,48.5.75,53.25c-.51,2.43.35,12,1.31,20.72a97.31,97.31,0,0,0,6.08,24.2A9.24,9.24,0,0,1,737.43,775.52Z" />
  <path
     id="path89"
     opacity="0.1"
     transform="translate(-100.5 -51.37)"
     d="M737.43,788.52l-5.75,12s-19.75,6.5-16.5,3.75c1.13-.95,1.71-3.42,2-6.69.71-.71,1.47-1.49,2.25-2.29a50.49,50.49,0,0,1,17.85-11.93h0C737.31,786.15,737.43,788.52,737.43,788.52Z" />
  <path
     style="fill-opacity:1.0;fill:url(#linearGradient1179)"
     id="path91"
     fill="#2271ff"
     transform="translate(-100.5 -51.37)"
     d="M746.45,806.38a.59.59,0,0,1,0,.14c-1,4.75-17.5,11.25-17.5,11.25s-10.5,1.75-16.5,3.25a4.15,4.15,0,0,1-1.41.13c-4.63-.35-4.84-9.26-4.84-10.63s5.75-7.75,7.5-8.75a53.63,53.63,0,0,0,5.56-5.33,51.6,51.6,0,0,1,18.22-12.17h0S747.25,801.45,746.45,806.38Z" />
  <path
     style="fill:#2271ff;fill-opacity:0"
     id="path93"
     opacity="0.3"
     d="m 645.95,755.01 a 0.59,0.59 0 0 1 0,0.14 c -1,4.75 -17.5,11.25 -17.5,11.25 0,0 -10.5,1.75 -16.5,3.25 a 4.15,4.15 0 0 1 -1.41,0.13 c -4.63,-0.35 -4.84,-9.26 -4.84,-10.63 0,-1.37 5.75,-7.75 7.5,-8.75 a 53,53 0 0 0 5.64,-5.41 50.57,50.57 0 0 1 17.86,-12 l 0.28,-0.11 c 0,0 9.77,17.2 8.97,22.13 z" />
  <path
     id="path95"
     opacity="0.1"
     transform="translate(-100.5 -51.37)"
     d="M746.45,806.38a.59.59,0,0,1,0,.14c-1,4.75-17.5,11.25-17.5,11.25s-10.5,1.75-16.5,3.25a4.15,4.15,0,0,1-1.41.13c5.44-3.73,18.63-12.68,20.41-12.88S742,805.55,746.45,806.38Z" />
  <path
     id="path97"
     opacity="0.1"
     transform="translate(-100.5 -51.37)"
     d="M815.91,413.66c-6.18,5.09-11.86,4.36-20.49,4.36-6.24,0-14.35,2.19-19.46-.62-.21-7.81-1-14.38-1-14.38s43.5-8.25,40.75,2A18.18,18.18,0,0,0,815.91,413.66Z" />
  <path
     id="path99"
     fill="#fdc2cc"
     transform="translate(-100.5 -51.37)"
     d="M828.93,385.06a35.75,35.75,0,0,1-35.75,35.75c-.92,0-1.84,0-2.74-.1h0a35.75,35.75,0,1,1,38.5-35.65Z" />
  <path
     id="path101"
     opacity="0.1"
     transform="translate(-100.5 -51.37)"
     d="M762.68,475.77l9.5,15-13.25,28.55-15.75,11.5L740.43,513s-5.32-11.75-7.61-13.74c.66-1.61,1.11-2.35,1.11-1.76,0,2.5,6.15,13.75,6.15,13.75,19-6.5,13.1-31.75,13.1-31.75s-2.36-22.5-3.28-28.42l3.28,1.42Z" />
  <path
     id="path103"
     opacity="0.1"
     transform="translate(-100.5 -51.37)"
     d="M846.68,440.27v14L832.18,459l-24.7,18.18L800.93,482l-29.25-11.75-18.5-19.5s.9-.49,2.46-1.3l1-.53c12.87,5.85,26.8,8,36.75,8.77a111,111,0,0,0,13.76.31C844.82,452,845.94,442.9,845,439.67Z" />
  <path
     style="fill-opacity:1;fill:url(#linearGradient1111)"
     id="path105"
     fill="#2271ff"
     transform="translate(-100.5 -51.37)"
     d="M857.43,667a280.29,280.29,0,0,1-29,12.25c-17.25,6.25-55.25-2-60-3.25s-41.25-15.75-55.25-21.25-17.5-1-20.75-1.5-5.5-6.75-6-8.5,9-17,14.25-24.75,21-6.25,23.25-6.75,18,0,18,0-1-5,4.75-19-9.5-40-9.5-40c-10.5-6.75-8.75-27.75-8.75-27.75-2.5-9.25,5.5-30.5,5.5-28s6.15,13.75,6.15,13.75c19-6.5,13.1-31.75,13.1-31.75s-2.75-26.25-3.48-29.5,3.48-2.75,3.48-2.75q1.22.63,2.46,1.2c13.16,6.2,27.56,8.46,37.78,9.24a111,111,0,0,0,13.76.31c45.67-7.37,37.58-19.12,37.28-19.54l2.22.79c16.5,12,11.5,51.75,11.5,51.75L852,521.67l-4.59,22.1s16.25,98.5,17.75,103.5S857.43,667,857.43,667Z" />
  <path
     id="path107"
     opacity="0.1"
     transform="translate(-100.5 -51.37)"
     d="M735.68,622c-1,.75-12.25,24-4,30.5S735.68,622,735.68,622Z" />
  <path
     id="path109"
     opacity="0.1"
     transform="translate(-100.5 -51.37)"
     d="M743.68,625.27c.25.75,23.5,37.75,36.25,40.75Z" />
  <path
     id="path111"
     opacity="0.1"
     transform="translate(-100.5 -51.37)"
     d="M799.69,332.48l-3.72.79a25.07,25.07,0,0,1,3.14-.93Z" />
  <path
     id="path113"
     opacity="0.1"
     transform="translate(-100.5 -51.37)"
     d="M855.71,492l-7,29.65a36.22,36.22,0,0,1-9.72-6.51c-2.23-2.12-4.23-4.55-7.1-5.94-3.69-1.79-8.14-1.55-12.33-1.7a59.32,59.32,0,0,1-15.42-2.64,10.88,10.88,0,0,1-4-1.94c-2.38-2.1-2.22-5.49-2-8.45a129.57,129.57,0,0,0,.15-17.29c-.06-1.08-.14-2.16-.23-3.24-.4-4.83-1.7-10.43-6.64-12.5-2.54-1-5.57-.92-8-2.13a6.61,6.61,0,0,1-1-.62c-3.6-2.52-3.93-7.57-3.79-11.82q.32-8.76.61-17.53a50.94,50.94,0,0,0-.19-8.65h0a19.21,19.21,0,0,0-1.56-5.52c-2.17-4.64-6.69-8.51-7.5-13.41a5.43,5.43,0,0,1-.09-.69c-.42-4.38,2.34-8.46,3.31-12.77,1.94-8.67-4.58-18.17-14.17-20.66-3-.78-6.22-.93-9.21-1.82a14.79,14.79,0,0,1-1.41-.5c7.24-9.66,19.65-16,33.74-16,22.33,0,40.44,16,40.44,35.75,0,11.2-5.83,21.19-14.94,27.75.06.28.13.57.21.85,2.35,9.09,9.64,18.61,9.64,18.61l22.64,7.2,2.52.8C861.37,452.27,855.71,492,855.71,492Z" />
  <path
     id="path115"
     opacity="0.1"
     transform="translate(-100.5 -51.37)"
     d="M868,520.72c-.22,0-.43-.05-.64-.09A1.33,1.33,0,0,1,868,520.72Z" />
  <path
     style="fill:#414141;fill-opacity:1"
     transform="translate(-100.5 -51.37)"
     id="path117"
     fill="#474157"
     d="M790.68,331.49a86,86,0,0,0-19.08-2.23c-2.09,0-4.33.11-6,1.26-2.21,1.55-2.49,4.35-3.15,6.77a18.78,18.78,0,0,1-7.15,10c-2.37,1.73-5.16,3-7.43,4.82s-4,4.52-3.43,7.18S748,364,751,364.85s6.19,1,9.21,1.82c9.59,2.49,16.1,12,14.16,20.65-1,4.31-3.73,8.39-3.31,12.77.49,5.23,5.32,9.26,7.59,14.11,2.07,4.42,1.93,9.38,1.77,14.16l-.61,17.54c-.16,4.62.24,10.18,4.8,12.44,2.44,1.2,5.48,1.07,8,2.13,4.94,2.06,6.24,7.67,6.64,12.49a129.1,129.1,0,0,1,.08,20.53c-.23,3-.39,6.35,2,8.45a10.72,10.72,0,0,0,4,1.94,59.32,59.32,0,0,0,15.42,2.64c4.2.16,8.64-.08,12.33,1.7,2.87,1.39,4.87,3.83,7.1,5.94a39.24,39.24,0,0,0,23.18,10.15c1.85.16,3.95.12,5.24-1.07s.53-3.76-1.31-3.61a8.89,8.89,0,0,0,8.42-3.22,7.1,7.1,0,0,0,0-8.17c-2.09-3-6.53-5-6.77-8.56-.13-2,1.2-3.81,2.24-5.59a23.51,23.51,0,0,0-3.64-28c-4.69-4.85-11.72-8.53-13.36-14.75-1.09-4.16.56-8.53-.07-12.76-1-7-7.93-12-11.74-18.24s-4.48-13.79-3.51-20.89,3.43-14,5.43-20.9c1.49-5.15,2.72-10.62,1.06-15.73-1.19-3.63-3.75-6.78-6.41-9.75-6.37-7.11-13.7-13.77-22.76-18s-20.1-5.87-29.72-2.74" />
  <path
     id="path119"
     opacity="0.1"
     d="m 691.2,279.55 a 86,86 0 0 0 -19.08,-2.23 c -2.09,0 -4.33,0.11 -6,1.26 -2.21,1.55 -2.49,4.35 -3.15,6.77 a 18.78,18.78 0 0 1 -7.15,10 c -2.37,1.73 -5.16,3 -7.43,4.82 -2.27,1.82 -4,4.52 -3.43,7.18 0.57,2.66 3.56,4.71 6.56,5.56 3,0.85 6.19,1 9.21,1.82 9.59,2.49 16.1,12 14.16,20.65 -1,4.31 -3.73,8.39 -3.31,12.77 0.49,5.23 5.32,9.26 7.59,14.11 2.07,4.42 1.93,9.38 1.77,14.16 l -0.61,17.54 c -0.16,4.62 0.24,10.18 4.8,12.44 2.44,1.2 5.48,1.07 8,2.13 4.94,2.06 6.24,7.67 6.64,12.49 a 129.1,129.1 0 0 1 0.08,20.53 c -0.23,3 -0.39,6.35 2,8.45 a 10.72,10.72 0 0 0 4,1.94 59.32,59.32 0 0 0 15.42,2.64 c 4.2,0.16 8.64,-0.08 12.33,1.7 2.87,1.39 4.87,3.83 7.1,5.94 a 39.24,39.24 0 0 0 23.18,10.15 c 1.85,0.16 3.95,0.12 5.24,-1.07 1.29,-1.19 0.53,-3.76 -1.31,-3.61 a 8.89,8.89 0 0 0 8.42,-3.22 7.1,7.1 0 0 0 0,-8.17 c -2.09,-3 -6.53,-5 -6.77,-8.56 -0.13,-2 1.2,-3.81 2.24,-5.59 a 23.51,23.51 0 0 0 -3.64,-28 c -4.69,-4.85 -11.72,-8.53 -13.36,-14.75 -1.09,-4.16 0.56,-8.53 -0.07,-12.76 -1,-7 -7.93,-12 -11.74,-18.24 -3.81,-6.24 -4.48,-13.79 -3.51,-20.89 0.97,-7.1 3.43,-14 5.43,-20.9 1.49,-5.15 2.72,-10.62 1.06,-15.73 -1.19,-3.63 -3.75,-6.78 -6.41,-9.75 -6.37,-7.11 -13.7,-13.77 -22.76,-18 -9.06,-4.23 -20.1,-5.87 -29.72,-2.74" />
  <path
     id="path121"
     opacity="0.1"
     transform="translate(-100.5 -51.37)"
     d="M737.18,554.27s8.5,3.25,17.5-5.75S737.18,554.27,737.18,554.27Z" />
  <g
     id="g127"
     opacity="0.1">
    <path
       id="path123"
       transform="translate(-100.5 -51.37)"
       d="M794.44,331.34a35.56,35.56,0,0,1,5-.63,37.93,37.93,0,0,0-7,.22Z" />
    <path
       id="path125"
       transform="translate(-100.5 -51.37)"
       d="M844.58,514.16c-2.24-2.11-4.23-4.55-7.11-5.94-3.68-1.78-8.13-1.54-12.33-1.7a59,59,0,0,1-15.42-2.64,10.72,10.72,0,0,1-4-1.94c-2.38-2.1-2.21-5.48-2-8.45a129.1,129.1,0,0,0-.08-20.53c-.41-4.82-1.7-10.43-6.65-12.49-2.53-1.06-5.56-.93-8-2.13-4.56-2.26-5-7.82-4.81-12.44q.31-8.77.61-17.53c.17-4.79.3-9.75-1.77-14.17-2.27-4.85-7.1-8.87-7.59-14.11-.41-4.37,2.35-8.46,3.32-12.77,1.94-8.67-4.58-18.16-14.17-20.65-3-.78-6.22-.94-9.21-1.82s-5.89-2.78-6.51-5.5,1.15-5.36,3.42-7.19,5.06-3.09,7.44-4.82a18.71,18.71,0,0,0,7.14-10c.67-2.42,1-5.21,3.15-6.77a8,8,0,0,1,4.1-1.2c-.89,0-1.78-.05-2.66-.05-2.09,0-4.33.11-6,1.25-2.21,1.56-2.49,4.35-3.15,6.77a18.78,18.78,0,0,1-7.15,10c-2.37,1.73-5.16,3-7.43,4.82s-4,4.52-3.43,7.19,3.53,4.61,6.52,5.5,6.19,1,9.21,1.82c9.59,2.49,16.1,12,14.16,20.65-1,4.31-3.73,8.4-3.31,12.77.49,5.24,5.32,9.26,7.59,14.11,2.07,4.42,1.94,9.38,1.77,14.17q-.31,8.76-.61,17.53c-.16,4.62.24,10.18,4.8,12.44,2.44,1.2,5.48,1.07,8,2.13,4.94,2.06,6.24,7.67,6.64,12.49a129.1,129.1,0,0,1,.08,20.53c-.23,3-.39,6.35,2,8.45a10.72,10.72,0,0,0,4,1.94,58.91,58.91,0,0,0,15.42,2.64c4.2.16,8.64-.08,12.33,1.7,2.87,1.39,4.87,3.83,7.11,5.94a39.18,39.18,0,0,0,23.17,10.15,10.71,10.71,0,0,0,3.35-.13A39.11,39.11,0,0,1,844.58,514.16Z" />
  </g>
  <path
     id="path129"
     opacity="0.1"
     transform="translate(-100.5 -51.37)"
     d="M689.43,484s-8,7.34-6.83,10.34S689.43,484,689.43,484Z" />
  <path
     style="fill:#414141;fill-opacity:1"
     id="path131"
     fill="#474157"
     transform="translate(-100.5 -51.37)"
     d="M696.85,578.35c-5.77-1.41-21.68-2.71-29.25,22.68a112.32,112.32,0,0,1-6.71,17.17c-7.26,14.91-16.64,45.57,24.61,52.32l99,22.5s53,6.5,56.5,4,3-8,3-8-58.5,0-70-18-12-42.5-12-42.5,1.44-37.83-59-48.82C701,579.32,698.9,578.85,696.85,578.35Z" />
  <path
     id="path133"
     opacity="0.1"
     d="m 596.35,526.98 c -5.77,-1.41 -21.68,-2.71 -29.25,22.69 a 112.32,112.32 0 0 1 -6.71,17.17 c -7.26,14.9 -16.64,45.56 24.61,52.31 l 99,22.5 c 0,0 53,6.5 56.5,4 3.5,-2.5 3,-8 3,-8 0,0 -58.5,0 -70,-18 -11.5,-18 -12,-42.5 -12,-42.5 0,0 1.44,-37.83 -59,-48.82 -2,-0.38 -4.1,-0.87 -6.15,-1.35 z" />
  <path
     style="fill:#414141;fill-opacity:1"
     id="path135"
     fill="#474157"
     transform="translate(-100.5 -51.37)"
     d="M904.38,552.48a15.29,15.29,0,0,0-15.45-12.92c-14.24.26-58.07,2.16-78.43,15.46,0,0-15.5,10-20,10s-65.5,52,25,98.5c0,0,48.5,13.8,67.5-18.6,0,0,13.5-34.8,12.5-46.85s9-44.55,9-44.55S904.48,553.13,904.38,552.48Z" />
  <path
     id="path137"
     opacity="0.1"
     d="m 805.22,505.44 c -1.14,-7 -7.8,-12.06 -15.45,-11.93 -14.24,0.24 -58.07,2 -78.43,14.27 0,0 -15.5,9.23 -20,9.23 -4.5,0 -65.5,48 25,90.93 0,0 48.5,12.74 67.5,-17.17 0,0 13.5,-32.13 12.5,-43.25 -1,-11.12 9,-41.12 9,-41.12 0,0 -0.02,-0.36 -0.12,-0.96 z" />
  <rect
     style="fill:#606060;fill-opacity:1"
     id="rect139"
     fill="#5f5d7e"
     height="34.07"
     width="16"
     y="612.14"
     x="739.5" />
  <ellipse
     id="ellipse141"
     opacity="0.1"
     ry="2.89"
     rx="45.04"
     cy="470.71"
     cx="170.24" />
  <path
     style="fill-opacity:1.0;fill:url(#linearGradient1151)"
     id="path143"
     fill="#2271ff"
     transform="translate(-100.5 -51.37)"
     d="M308.54,410.62a17.18,17.18,0,0,0-2.28,4.29c-.14.38-.28.8-.42,1.21a3.69,3.69,0,0,0-.79-.27,11.34,11.34,0,0,0-3.57-.31c0-.46.06-1,.07-1.46.15-5.27-.47-12.62-5.5-9.51-4.82,3-1.38,8,1.73,11.21l.8.78c-2.84,2-3.38,6.73-3.85,11.64s-4.64,10.29-7.41,13.34c-.28.31-.53.59-.78.85a10.11,10.11,0,0,0-8.05-2.07c-.11-.43-.24-.88-.37-1.36-2.24-8.08-6.89-22.09-12.82-25.16l.78-1c2.52-3.3,5.36-8.19,1.17-9.45s-4.57,4.25-4.34,8.37c0,.52.08,1,.12,1.46a6.17,6.17,0,0,0-4.38,2.14l-.65-.76c-3.4-4-9.63-10.37-11.52-5.56-1.76,4.48,3.73,10.29,7.59,13.66l.24.21C251.72,433.4,263,442,269.12,445.72l.79.48c-8.4,9.9-13.59,28.45-13.59,28.45l23.52,4.2s15.6-13.45,13.6-26.09l.16,0c15.59-3.12,19.13-19.74,16.7-29.61l.28-.11a17.74,17.74,0,0,0,7.22-5.46C322.16,411.51,313,404.67,308.54,410.62Z" />
  <path
     id="path145"
     opacity="0.1"
     d="m 208.04,359.25 a 17.18,17.18 0 0 0 -2.28,4.29 c -0.14,0.38 -0.28,0.8 -0.42,1.21 a 3.69,3.69 0 0 0 -0.79,-0.27 11.34,11.34 0 0 0 -3.57,-0.31 c 0,-0.46 0.06,-1 0.07,-1.46 0.15,-5.27 -0.47,-12.62 -5.5,-9.51 -4.82,3 -1.38,8 1.73,11.21 l 0.8,0.78 c -2.84,2 -3.38,6.73 -3.85,11.64 -0.47,4.91 -4.64,10.29 -7.41,13.34 -0.28,0.31 -0.53,0.59 -0.78,0.85 a 10.11,10.11 0 0 0 -8.05,-2.07 c -0.11,-0.43 -0.24,-0.88 -0.37,-1.36 -2.24,-8.08 -6.89,-22.09 -12.82,-25.16 l 0.78,-1 c 2.52,-3.3 5.36,-8.19 1.17,-9.45 -4.19,-1.26 -4.57,4.25 -4.34,8.37 0,0.52 0.08,1 0.12,1.46 a 6.17,6.17 0 0 0 -4.38,2.14 l -0.65,-0.76 c -3.4,-4 -9.63,-10.37 -11.52,-5.56 -1.76,4.48 3.73,10.29 7.59,13.66 l 0.24,0.21 c -2.59,10.53 8.69,19.13 14.81,22.85 l 0.79,0.48 c -8.4,9.9 -13.59,28.45 -13.59,28.45 l 23.52,4.2 c 0,0 15.6,-13.45 13.6,-26.09 h 0.16 c 15.59,-3.12 19.13,-19.74 16.7,-29.61 l 0.28,-0.11 a 17.74,17.74 0 0 0 7.22,-5.46 c 4.36,-6.07 -4.8,-12.91 -9.26,-6.96 z" />
  <path
     style="fill-opacity:1.0;fill:url(#linearGradient1143)"
     id="path147"
     fill="#2271ff"
     transform="translate(-100.5 -51.37)"
     d="M261.72,417.4,259,425.45s-1.53-1.08-3.46-2.78c-3.86-3.37-9.35-9.18-7.59-13.66,1.89-4.81,8.12,1.54,11.52,5.56C260.81,416.16,261.72,417.4,261.72,417.4Z" />
  <path
     style="fill-opacity:1.0;fill:url(#linearGradient1141)"
     id="path149"
     fill="#2271ff"
     transform="translate(-100.5 -51.37)"
     d="M267.52,412.81a38.89,38.89,0,0,1-2.68,3.15,42.22,42.22,0,0,1-.49-4.23c-.23-4.12.21-9.59,4.34-8.37S270,409.51,267.52,412.81Z" />
  <path
     transform="translate(-100.5 -51.37)"
     style="fill-opacity:1.0;fill:url(#linearGradient1139)"
     id="path151"
     fill="#2271ff"
     d="M303,414.08c-.08,2.65-.34,4.76-.34,4.76a34,34,0,0,1-3.43-3.06c-3.11-3.23-6.55-8.21-1.73-11.21C302.52,401.46,303.14,408.81,303,414.08Z" />
  <path
     transform="translate(-100.5 -51.37)"
     style="fill-opacity:1.0;fill:url(#linearGradient1137)"
     id="path153"
     fill="#2271ff"
     d="M319.24,417.55A17.74,17.74,0,0,1,312,423a20.18,20.18,0,0,1-2.42.87l-3.24-4.55a33.05,33.05,0,0,1,1.34-4.42,17.18,17.18,0,0,1,2.28-4.29C314.46,404.67,323.6,411.51,319.24,417.55Z" />
  <path
     id="path155"
     opacity="0.1"
     transform="translate(-100.5 -51.37)"
     d="M259.44,414.57c1.37,1.59,2.28,2.83,2.28,2.83L259,425.45s-1.53-1.08-3.46-2.78a15.75,15.75,0,0,1,3.1-7.07C258.88,415.23,259.17,414.88,259.44,414.57Z" />
  <path
     id="path157"
     opacity="0.1"
     transform="translate(-100.5 -51.37)"
     d="M267.52,412.81a38.89,38.89,0,0,1-2.68,3.15,42.22,42.22,0,0,1-.49-4.23A5.46,5.46,0,0,1,267.52,412.81Z" />
  <path
     style="fill-opacity:1.0;fill:url(#linearGradient1127)"
     id="path159"
     fill="#2271ff"
     transform="translate(-100.5 -51.37)"
     d="M281,444.77l-6.84,3s-1.49-.72-3.64-2.06c-7.19-4.43-21.64-15.56-11.95-28.68s17.77,10.42,20.95,21.92C280.53,442.4,281,444.77,281,444.77Z" />
  <path
     id="path161"
     opacity="0.1"
     transform="translate(-100.5 -51.37)"
     d="M299.22,415.78a5.57,5.57,0,0,1,3.77-1.7c-.08,2.65-.34,4.76-.34,4.76A34,34,0,0,1,299.22,415.78Z" />
  <path
     id="path163"
     opacity="0.1"
     transform="translate(-100.5 -51.37)"
     d="M312,423a20.18,20.18,0,0,1-2.42.87l-3.24-4.55a33.05,33.05,0,0,1,1.34-4.42C309.79,416.14,311.33,419.17,312,423Z" />
  <path
     transform="translate(-100.5 -51.37)"
     style="fill-opacity:1.0;fill:url(#linearGradient1135)"
     id="path165"
     fill="#2271ff"
     d="M295,452.73l-1.15.2c-22.93,3.49-7.56-8.88-7.56-8.88s1-.95,2.43-2.51c2.77-3.05,6.93-8.4,7.41-13.34.72-7.43,1.55-14.4,10.32-12.35C315.1,417.86,316.75,448.38,295,452.73Z" />
  <rect
     style="fill:#414141;fill-opacity:1"
     id="rect167"
     fill="#474157"
     height="11.52"
     width="43.81"
     y="458.44"
     x="150.3" />
  <rect
     style="fill:#414141;fill-opacity:1"
     id="rect169"
     fill="#474157"
     height="40.2"
     width="57.24"
     y="421"
     x="143.34" />
  <rect
     id="rect171"
     opacity="0.1"
     height="11.52"
     width="43.810001"
     y="458.44"
     x="150.29999" />
  <rect
     id="rect173"
     opacity="0.1"
     height="40.200001"
     width="57.240002"
     y="421"
     x="143.34" />
  <rect
     style="fill:#414141;fill-opacity:1"
     id="rect175"
     fill="#474157"
     height="11.52"
     width="43.81"
     y="458.44"
     x="153.18" />
  <path
     id="path177"
     opacity="0.1"
     transform="translate(-100.5 -51.37)"
     d="M279.56,439c1,3.44,1.48,5.81,1.48,5.81l-6.84,3s-1.49-.72-3.64-2.06C273.24,442.32,276.26,439.75,279.56,439Z" />
  <path
     id="path179"
     opacity="0.1"
     transform="translate(-100.5 -51.37)"
     d="M295,452.73l-1.15.2c-22.93,3.49-7.56-8.88-7.56-8.88s1-.95,2.43-2.51C293,445,294.81,448.83,295,452.73Z" />
  <path
     style="fill-opacity:1.0;fill:url(#linearGradient1119)"
     id="path181"
     fill="#2271ff"
     transform="translate(-100.5 -51.37)"
     d="M257.76,474.65s12.84-46,30.85-31.8-7.33,36-7.33,36Z" />
  <circle
     id="circle183"
     opacity="0.1"
     r="1.44"
     cy="372.87"
     cx="163.74" />
  <circle
     id="circle185"
     opacity="0.1"
     r="1.44"
     cy="379.6"
     cx="163.62" />
  <circle
     id="circle187"
     opacity="0.1"
     r="1.44"
     cy="374.19"
     cx="205.39" />
  <circle
     id="circle189"
     opacity="0.1"
     r="1.44"
     cy="408.64"
     cx="171.78" />
  <circle
     id="circle191"
     opacity="0.1"
     r="1.44"
     cy="385.36"
     cx="202.39" />
  <circle
     id="circle193"
     opacity="0.1"
     r="1.44"
     cy="400.24"
     cx="187.51" />
  <circle
     id="circle195"
     opacity="0.1"
     r="1.44"
     cy="375.75"
     cx="168.66" />
  <circle
     id="circle197"
     opacity="0.1"
     r="1.44"
     cy="378.52"
     cx="201.43" />
  <circle
     id="circle199"
     opacity="0.1"
     r="1.44"
     cy="389.68"
     cx="196.51" />
  <circle
     id="circle201"
     opacity="0.1"
     r="1.44"
     cy="407.56"
     cx="181.38" />
  <circle
     id="circle203"
     opacity="0.1"
     r="1.44"
     cy="400.48"
     cx="178.26" />
  <circle
     id="circle205"
     opacity="0.1"
     r="1.44"
     cy="384.52"
     cx="170.82" />
  <rect
     id="rect207"
     opacity="0.1"
     height="4.21"
     width="43.81"
     y="458.44"
     x="153.18" />
  <rect
     style="fill:#414141;fill-opacity:1"
     id="rect209"
     fill="#474157"
     height="40.2"
     width="57.24"
     y="421"
     x="146.22" />
  <circle
     id="circle211"
     opacity="0.1"
     r="1.44"
     cy="414.04"
     cx="183.3" />
  <circle
     id="circle213"
     opacity="0.1"
     r="1.44"
     cy="415.84"
     cx="174.66" />
  <path
     style="fill-opacity:1.0;fill:url(#linearGradient1161)"
     id="path215"
     fill="#2271ff"
     transform="translate(-100.5 -51.37)"
     d="M412.39,626s7.13,9.33-3.29,23.41-19,26-15.56,34.76c0,0,15.74-26.16,28.55-26.52S426.48,641.74,412.39,626Z" />
  <path
     id="path217"
     opacity="0.1"
     transform="translate(-100.5 -51.37)"
     d="M412.39,626a11.49,11.49,0,0,1,1.46,2.92c12.49,14.68,19.15,28.38,7.14,28.73C409.8,658,396.38,678,393.16,683c.11.39.24.78.38,1.15,0,0,15.74-26.16,28.55-26.52S426.48,641.74,412.39,626Z" />
  <path
     id="path219"
     fill="#ffd037"
     transform="translate(-100.5 -51.37)"
     d="M425.65,637.9c0,3.28-.37,5.94-.82,5.94s-.82-2.66-.82-5.94.46-1.74.91-1.74S425.65,634.61,425.65,637.9Z" />
  <path
     id="path221"
     fill="#ffd037"
     transform="translate(-100.5 -51.37)"
     d="M430.2,641.82c-2.88,1.57-5.39,2.52-5.61,2.12s1.94-2,4.83-3.57,1.74-.43,2,0S433.09,640.25,430.2,641.82Z" />
  <path
     style="fill-opacity:1.0;fill:url(#linearGradient1159)"
     id="path223"
     fill="#2271ff"
     transform="translate(-100.5 -51.37)"
     d="M374.7,626s-7.13,9.33,3.29,23.41,19,26,15.55,34.76c0,0-15.73-26.16-28.54-26.52S360.61,641.74,374.7,626Z" />
  <path
     id="path225"
     opacity="0.1"
     transform="translate(-100.5 -51.37)"
     d="M374.7,626a11.49,11.49,0,0,0-1.46,2.92c-12.49,14.68-19.15,28.38-7.14,28.73C377.29,658,390.71,678,393.93,683a11.1,11.1,0,0,1-.39,1.15S377.81,658,365,657.66,360.61,641.74,374.7,626Z" />
  <path
     id="path227"
     fill="#ffd037"
     transform="translate(-100.5 -51.37)"
     d="M361.44,637.9c0,3.28.37,5.94.82,5.94s.82-2.66.82-5.94-.46-1.74-.91-1.74S361.44,634.61,361.44,637.9Z" />
  <path
     id="path229"
     fill="#ffd037"
     transform="translate(-100.5 -51.37)"
     d="M356.89,641.82c2.88,1.57,5.39,2.52,5.61,2.12s-1.94-2-4.83-3.57-1.74-.43-2,0S354,640.25,356.89,641.82Z" />
  <ellipse
     style="fill:#f6af14;fill-opacity:1"
     id="ellipse231"
     opacity="0.1"
     fill="#2271ff"
     ry="11.45"
     rx="74.6"
     cy="692.74"
     cx="293.04" />
  <path
     style="fill:#606060;fill-opacity:1"
     id="path233"
     fill="#65617d"
     transform="translate(-100.5 -51.37)"
     d="M431.94,671.61l-.36,2.91-.5,4.12-.2,1.71-.51,4.12-.21,1.72-.5,4.11L424,737.1c-.51,4.18-7.34,7.43-15.57,7.43H378.71c-8.24,0-15-3.25-15.56-7.43l-5.72-46.8-.5-4.11-.21-1.72-.51-4.12-.2-1.71-.5-4.12-.36-2.91c-.29-2.36,3.4-4.36,8.07-4.36h60.66C428.53,667.25,432.23,669.25,431.94,671.61Z" />
  <polygon
     style="fill:#838383;fill-opacity:1"
     id="polygon235"
     fill="#9d9cb5"
     points="331.08 623.15 330.58 627.26 255.51 627.26 255.01 623.15 331.08 623.15" />
  <polygon
     style="fill:#838383;fill-opacity:1"
     id="polygon237"
     fill="#9d9cb5"
     points="330.38 628.98 329.88 633.1 256.22 633.1 255.71 628.98 330.38 628.98" />
  <polygon
     style="fill:#838383;fill-opacity:1"
     id="polygon239"
     fill="#9d9cb5"
     points="329.66 634.81 329.16 638.93 256.93 638.93 256.43 634.81 329.66 634.81" />
</svg>
